<svg width="60" height="60" viewBox="0 0 60 60" fill="none" xmlns="http://www.w3.org/2000/svg">
<path fill-rule="evenodd" clip-rule="evenodd" d="M7.79289 15.2929C7.5 15.5858 7.5 16.0572 7.5 17V43C7.5 43.9428 7.5 44.4142 7.79289 44.7071C8.08579 45 8.55719 45 9.5 45H40.3593C41.4072 45 41.9312 45 42.3733 44.7633C42.8155 44.5267 43.1062 44.0907 43.6875 43.2188L51.0208 32.2188C51.7378 31.1433 52.0963 30.6056 52.0963 30C52.0963 29.3944 51.7378 28.8567 51.0208 27.7812L43.6875 16.7812C43.1062 15.9093 42.8155 15.4733 42.3733 15.2367C41.9312 15 41.4072 15 40.3593 15H9.5C8.55719 15 8.08579 15 7.79289 15.2929ZM37.5 35C40.2614 35 42.5 32.7614 42.5 30C42.5 27.2386 40.2614 25 37.5 25C34.7386 25 32.5 27.2386 32.5 30C32.5 32.7614 34.7386 35 37.5 35Z" fill="white"/>
</svg>
