<svg width="60" height="60" viewBox="0 0 60 60" fill="none" xmlns="http://www.w3.org/2000/svg">
<path fill-rule="evenodd" clip-rule="evenodd" d="M27.675 50.8393L14.175 41.1965C13.3539 40.6099 12.9433 40.3167 12.7217 39.8859C12.5 39.4552 12.5 38.9506 12.5 37.9415V22.0585C12.5 21.7371 12.5 21.4669 12.5072 21.234L29 33.0146V51.7313C28.6433 51.5309 28.227 51.2336 27.675 50.8393ZM31 51.7313C31.3568 51.5309 31.773 51.2336 32.325 50.8393L45.825 41.1965C46.6461 40.6099 47.0567 40.3167 47.2783 39.8859C47.5 39.4552 47.5 38.9506 47.5 37.9415V22.0585C47.5 21.7371 47.5 21.4669 47.4928 21.234L31 33.0146V51.7313ZM46.6276 19.3943L30 31.2711L13.3724 19.3943C13.5837 19.2259 13.8465 19.0382 14.175 18.8035L27.675 9.16068L27.6751 9.16068C28.7977 8.35877 29.3591 7.95781 30 7.95781C30.6409 7.95781 31.2023 8.35877 32.325 9.16068L45.825 18.8035C46.1535 19.0382 46.4163 19.2259 46.6276 19.3943Z" fill="white"/>
</svg>
