<svg width="24" height="24" viewBox="0 0 24 24" fill="none" xmlns="http://www.w3.org/2000/svg">
<path d="M13.4099 12.0003L17.7099 7.71031C17.8982 7.522 18.004 7.26661 18.004 7.00031C18.004 6.73401 17.8982 6.47861 17.7099 6.29031C17.5216 6.102 17.2662 5.99622 16.9999 5.99622C16.7336 5.99622 16.4782 6.102 16.2899 6.29031L11.9999 10.5903L7.70994 6.29031C7.52164 6.102 7.26624 5.99622 6.99994 5.99622C6.73364 5.99622 6.47824 6.102 6.28994 6.29031C6.10164 6.47861 5.99585 6.73401 5.99585 7.00031C5.99585 7.26661 6.10164 7.522 6.28994 7.71031L10.5899 12.0003L6.28994 16.2903C6.19621 16.3833 6.12182 16.4939 6.07105 16.6157C6.02028 16.7376 5.99414 16.8683 5.99414 17.0003C5.99414 17.1323 6.02028 17.263 6.07105 17.3849C6.12182 17.5067 6.19621 17.6173 6.28994 17.7103C6.3829 17.804 6.4935 17.8784 6.61536 17.9292C6.73722 17.98 6.86793 18.0061 6.99994 18.0061C7.13195 18.0061 7.26266 17.98 7.38452 17.9292C7.50637 17.8784 7.61698 17.804 7.70994 17.7103L11.9999 13.4103L16.2899 17.7103C16.3829 17.804 16.4935 17.8784 16.6154 17.9292C16.7372 17.98 16.8679 18.0061 16.9999 18.0061C17.1319 18.0061 17.2627 17.98 17.3845 17.9292C17.5064 17.8784 17.617 17.804 17.7099 17.7103C17.8037 17.6173 17.8781 17.5067 17.9288 17.3849C17.9796 17.263 18.0057 17.1323 18.0057 17.0003C18.0057 16.8683 17.9796 16.7376 17.9288 16.6157C17.8781 16.4939 17.8037 16.3833 17.7099 16.2903L13.4099 12.0003Z" fill="#26407A"/>
</svg>
