<svg width="33" height="33" viewBox="0 0 33 33" fill="none" xmlns="http://www.w3.org/2000/svg">
<path fill-rule="evenodd" clip-rule="evenodd" d="M16.5 3.125C12.0765 3.125 8.36038 6.45108 7.87189 10.8475L7.52566 13.9636C7.4475 14.667 7.41394 14.9615 7.35746 15.2457C7.23963 15.8386 7.04549 16.4138 6.77988 16.9568C6.65258 17.2171 6.5008 17.4717 6.13665 18.0786L5.08489 19.8315L5.04738 19.894L5.04737 19.894C4.67677 20.5115 4.34233 21.0688 4.1481 21.5371C3.94459 22.0278 3.77584 22.6982 4.15078 23.3604C4.52572 24.0226 5.18735 24.2228 5.71284 24.3008C6.21436 24.3752 6.86428 24.3751 7.58447 24.375H7.58449L7.65737 24.375H25.3426L25.4155 24.375H25.4155C26.1357 24.3751 26.7856 24.3752 27.2871 24.3008C27.8126 24.2228 28.4743 24.0226 28.8492 23.3604C29.2241 22.6982 29.0554 22.0278 28.8519 21.5371C28.6576 21.0688 28.3232 20.5115 27.9526 19.894L27.9151 19.8315L26.8633 18.0786C26.4992 17.4717 26.3474 17.2171 26.2201 16.9568C25.9545 16.4138 25.7604 15.8386 25.6425 15.2457C25.586 14.9615 25.5525 14.667 25.4743 13.9636L25.3629 12.9608C25.1623 12.9867 24.9577 13 24.75 13C24.2557 13 23.7791 12.9245 23.331 12.7844L23.4866 14.1844L23.4918 14.2319V14.2319C23.5632 14.8742 23.6057 15.2575 23.6809 15.6356C23.8324 16.3979 24.082 17.1373 24.4235 17.8355C24.5928 18.1818 24.7913 18.5125 25.1237 19.0666L25.1237 19.0666L25.1483 19.1076L26.2001 20.8605C26.6204 21.561 26.8741 21.9891 27.0045 22.3033L27.0112 22.3197L26.9936 22.3224C26.6572 22.3723 26.1595 22.375 25.3426 22.375H7.65737C6.84048 22.375 6.34283 22.3723 6.00635 22.3224L5.98879 22.3197L5.99553 22.3033C6.12584 21.9891 6.37959 21.561 6.79988 20.8605L7.85163 19.1076L7.87619 19.0666C8.20871 18.5125 8.40713 18.1818 8.5765 17.8355C8.91799 17.1373 9.1676 16.3979 9.3191 15.6356C9.39423 15.2575 9.43681 14.8742 9.50815 14.2319L9.51343 14.1844L9.85966 11.0684C10.2356 7.68481 13.0956 5.125 16.5 5.125C17.9422 5.125 19.2867 5.58439 20.386 6.37119C20.6547 5.74798 21.053 5.19376 21.5469 4.74247C20.1189 3.72122 18.3728 3.125 16.5 3.125ZM23.0396 6.09645C22.4612 6.55649 22.0723 7.2447 22.0091 8.02496C22.4918 8.72735 22.8447 9.52885 23.0312 10.3968C23.502 10.7742 24.0996 11 24.75 11C24.8831 11 25.0139 10.9905 25.142 10.9723L25.1281 10.8475C24.9258 9.02687 24.17 7.38978 23.0396 6.09645ZM27.0716 22.5126C27.0714 22.5125 27.0711 22.5099 27.0709 22.5053C27.0717 22.5104 27.0717 22.5127 27.0716 22.5126ZM27.201 22.2755C27.2051 22.2732 27.2075 22.2722 27.2076 22.2723C27.2078 22.2724 27.2058 22.2735 27.201 22.2755ZM5.79234 22.2723C5.79252 22.2722 5.79489 22.2732 5.79894 22.2755C5.79419 22.2735 5.79216 22.2724 5.79234 22.2723ZM5.92906 22.5053C5.92894 22.5099 5.92856 22.5125 5.9284 22.5126C5.92824 22.5127 5.92831 22.5104 5.92906 22.5053Z" fill="#81613C"/>
<path d="M12.5156 24.2889C12.7506 25.6046 13.2685 26.7672 13.9889 27.5964C14.7093 28.4256 15.5919 28.875 16.5 28.875C17.4081 28.875 18.2907 28.4256 19.0111 27.5964C19.7315 26.7672 20.2494 25.6046 20.4844 24.2889" stroke="#81613C" stroke-width="2" stroke-linecap="round"/>
<circle cx="24.75" cy="8.25" r="3.75" fill="#81613C" stroke="#81613C" stroke-width="2"/>
</svg>
