<svg width="33" height="30" viewBox="0 0 33 30" fill="none" xmlns="http://www.w3.org/2000/svg">
<path d="M16.5 28.875V17.875M16.5 28.875L7.71252 22.5982C7.30195 22.305 7.09666 22.1583 6.98583 21.943C6.875 21.7276 6.875 21.4753 6.875 20.9708V11M16.5 28.875L25.2875 22.5982C25.698 22.305 25.9033 22.1583 26.0142 21.943C26.125 21.7276 26.125 21.4753 26.125 20.9708V11M16.5 17.875L6.875 11M16.5 17.875L26.125 11M6.875 11L15.3375 4.95534C15.8989 4.55438 16.1795 4.3539 16.5 4.3539C16.8205 4.3539 17.1011 4.55438 17.6625 4.95534L26.125 11" stroke="#81613C" stroke-width="2" stroke-linejoin="round"/>
</svg>
