<svg width="33" height="33" viewBox="0 0 33 33" fill="none" xmlns="http://www.w3.org/2000/svg">
<path d="M11 4.125H7.125C5.71079 4.125 5.00368 4.125 4.56434 4.56434C4.125 5.00368 4.125 5.71079 4.125 7.125V11" stroke="#81613C" stroke-width="2" stroke-linecap="round"/>
<path d="M11 28.875H7.125C5.71079 28.875 5.00368 28.875 4.56434 28.4357C4.125 27.9963 4.125 27.2892 4.125 25.875V22" stroke="#81613C" stroke-width="2" stroke-linecap="round"/>
<path d="M22 4.125H25.875C27.2892 4.125 27.9963 4.125 28.4357 4.56434C28.875 5.00368 28.875 5.71079 28.875 7.125V11" stroke="#81613C" stroke-width="2" stroke-linecap="round"/>
<path d="M22 28.875H25.875C27.2892 28.875 27.9963 28.875 28.4357 28.4357C28.875 27.9963 28.875 27.2892 28.875 25.875V22" stroke="#81613C" stroke-width="2" stroke-linecap="round"/>
</svg>
