<svg width="33" height="33" viewBox="0 0 33 33" fill="none" xmlns="http://www.w3.org/2000/svg">
<path d="M27.5 11L28.2071 11.7071L28.9142 11L28.2071 10.2929L27.5 11ZM20.625 27.125C21.1773 27.125 21.625 26.6773 21.625 26.125C21.625 25.5727 21.1773 25.125 20.625 25.125L20.625 27.125ZM21.3321 18.5821L28.2071 11.7071L26.7929 10.2929L19.9179 17.1679L21.3321 18.5821ZM28.2071 10.2929L21.3321 3.41789L19.9179 4.83211L26.7929 11.7071L28.2071 10.2929ZM27.5 10L13.0625 10L13.0625 12L27.5 12L27.5 10ZM13.0625 27.125L20.625 27.125L20.625 25.125L13.0625 25.125L13.0625 27.125ZM4.5 18.5625C4.5 23.2914 8.33356 27.125 13.0625 27.125L13.0625 25.125C9.43813 25.125 6.5 22.1869 6.5 18.5625L4.5 18.5625ZM13.0625 10C8.33356 10 4.5 13.8336 4.5 18.5625L6.5 18.5625C6.5 14.9381 9.43813 12 13.0625 12L13.0625 10Z" fill="#81613C"/>
</svg>
